<?xml version="1.0" encoding="UTF-8" standalone="no"?>
<!-- Created with Inkscape (http://www.inkscape.org/) -->

<svg
   width="210mm"
   height="297mm"
   viewBox="0 0 210 297"
   version="1.1"
   id="svg5"
   sodipodi:docname="logo.svg"
   inkscape:version="1.2 (dc2aedaf03, 2022-05-15)"
   xmlns:inkscape="http://www.inkscape.org/namespaces/inkscape"
   xmlns:sodipodi="http://sodipodi.sourceforge.net/DTD/sodipodi-0.dtd"
   xmlns="http://www.w3.org/2000/svg"
   xmlns:svg="http://www.w3.org/2000/svg">
  <sodipodi:namedview
     id="namedview7"
     pagecolor="#ffffff"
     bordercolor="#000000"
     borderopacity="0.25"
     inkscape:showpageshadow="2"
     inkscape:pageopacity="0.0"
     inkscape:pagecheckerboard="0"
     inkscape:deskcolor="#d1d1d1"
     inkscape:document-units="mm"
     showgrid="false"
     inkscape:zoom="0.78127806"
     inkscape:cx="396.78575"
     inkscape:cy="563.17977"
     inkscape:window-width="1920"
     inkscape:window-height="1057"
     inkscape:window-x="1912"
     inkscape:window-y="-8"
     inkscape:window-maximized="1"
     inkscape:current-layer="layer1" />
  <defs
     id="defs2" />
  <g
     inkscape:label="Layer 1"
     inkscape:groupmode="layer"
     id="layer1">
    <ellipse
       style="fill:#008080;stroke-width:0.264583"
       id="path420"
       cx="100.24173"
       cy="163.73946"
       rx="55.539337"
       ry="57.401939" />
    <ellipse
       style="fill:#2b0000;stroke-width:0.328883"
       id="path428"
       cx="152.56386"
       cy="197.60492"
       rx="20.149944"
       ry="9.9903078" />
    <ellipse
       style="fill:#2b0000;stroke-width:0.0961431"
       id="path428-3"
       cx="82.97036"
       cy="132.58324"
       rx="3.3865457"
       ry="5.0798178" />
    <ellipse
       style="fill:#2b0000;stroke-width:0.0961431"
       id="path428-3-0"
       cx="112.77195"
       cy="132.41391"
       rx="3.3865457"
       ry="5.0798178" />
    <ellipse
       style="fill:#00ffff;stroke-width:0.264583"
       id="path430"
       cx="58.756557"
       cy="110.40136"
       rx="20.149942"
       ry="15.578107" />
    <ellipse
       style="fill:#0000ff;stroke-width:0.264583"
       id="path430-2"
       cx="138.50969"
       cy="108.7081"
       rx="20.149942"
       ry="15.578107" />
    <path
       style="fill:#2b0000;stroke-width:0.264583"
       d="m 67.053591,161.87685 c 10.206144,-0.30371 20.310544,0.33866 30.478905,0.33866 2.096259,0 4.021034,0.0793 6.095784,0.33865 1.55479,0.19435 3.18206,-0.15591 4.74116,0 0.57275,0.0573 1.11966,0.29085 1.69327,0.33865 1.12495,0.0937 2.2633,-0.11232 3.38655,0 2.07297,0.2073 4.05811,0.72487 6.09578,1.01597 0.33525,0.0479 0.68742,-0.0821 1.01596,0 0.15488,0.0387 0.18721,0.28817 0.33866,0.33865 1.92746,0.64249 5.18242,-0.64311 7.11174,0 0.10709,0.0357 -0.0798,0.25883 0,0.33866 0.25101,0.25101 0.93428,-0.0817 1.35462,0.33865 0.0798,0.0798 -0.0798,0.25883 0,0.33866 0.0798,0.0798 0.23768,-0.0505 0.33865,0 0.31777,0.15888 0.91501,1.05176 1.01597,1.35461 0.0714,0.21419 -0.0443,0.45593 0,0.67731 -0.65876,0.94088 0.55486,0.86486 0.6773,1.35462 0.0821,0.32854 -0.0557,0.68192 0,1.01596 0.28119,1.68713 0.8274,3.38271 1.01597,5.07982 0.15725,1.41525 0,2.97128 0,4.40251 0,1.34192 0.24141,3.07475 0,4.40251 -0.70236,3.86296 -3.11344,9.36762 -6.09578,11.8529 -2.07259,1.72716 -4.07395,2.62134 -6.43444,4.06386 -0.69459,0.42447 -1.30384,0.99058 -2.03192,1.35462 -0.63858,0.31928 -1.39336,0.35802 -2.03193,0.67731 -5.05074,2.52537 4.31712,-0.85287 -4.06386,2.37058 -0.53723,0.20663 -1.13137,0.21379 -1.69327,0.33865 -0.45435,0.10097 -0.90308,0.22577 -1.35462,0.33866 -0.56442,0.22577 -1.10352,0.52987 -1.69327,0.67731 -2.04792,0.51198 -7.74879,0.68536 -9.482324,0.33865 -3.40002,-0.68 -7.297486,-1.59298 -10.498288,-3.04789 -0.9695,-0.44068 -1.80226,-1.13513 -2.709239,-1.69327 -6.010857,-3.69899 -9.480237,-7.95551 -13.546179,-13.54618 -0.425141,-0.58457 -0.982731,-1.07347 -1.354617,-1.69327 -0.873984,-1.45665 -0.634777,-2.87777 -1.015965,-4.40251 -0.03872,-0.15488 -0.288171,-0.18721 -0.338654,-0.33866 -0.14279,-0.42837 0.07423,-0.90922 0,-1.35462 -0.264477,-1.58685 -1.086233,-2.7922 -1.354619,-4.4025 -0.15045,-0.9027 -0.308819,-10.21931 0,-10.83695 0.667568,-1.33513 0.84889,0.18059 0.338656,-2.37058 z"
       id="path345" />
    <path
       style="fill:#2b0000;stroke-width:0.264583"
       d="m 90.420752,149.00798 c 2.655433,0.99023 3.269102,4.0854 5.418471,5.75713 0.398494,0.30994 0.928706,0.40627 1.354619,0.67731 0.819256,0.52134 1.518082,1.22827 2.37058,1.69327 1.049578,0.5725 5.703338,1.10521 6.773088,0.67731 0.3779,-0.15116 0.64186,-0.51698 1.01597,-0.67731 0.4278,-0.18335 0.93832,-0.13051 1.35461,-0.33866 0.71301,-0.3565 2.35856,-1.48046 3.04789,-2.03192 0.71727,-0.57382 1.62152,-1.88843 2.03193,-2.70924 0.32253,-0.64505 -0.27035,-1.08426 0.33866,-1.69327"
       id="path349" />
  </g>
</svg>
